<mxfile host="app.diagrams.net" agent="Mozilla/5.0 (Windows NT 10.0; Win64; x64) AppleWebKit/537.36 (KHTML, like Gecko) Chrome/134.0.0.0 Safari/537.36 Avast/134.0.0.0" version="27.0.6">
  <diagram name="Page-2" id="6AkD-NnwkzePkd1uHVd8">
    <mxGraphModel dx="1042" dy="527" grid="1" gridSize="10" guides="1" tooltips="1" connect="1" arrows="1" fold="1" page="1" pageScale="1" pageWidth="827" pageHeight="1169" math="0" shadow="0">
      <root>
        <mxCell id="0" />
        <mxCell id="1" parent="0" />
        <mxCell id="AYb-isKz4nac1UMFXbAt-7" value="Baza podataka" style="shape=cylinder3;whiteSpace=wrap;html=1;boundedLbl=1;backgroundOutline=1;size=15;fillColor=#1ba1e2;fontColor=#ffffff;strokeColor=#006EAF;" parent="1" vertex="1">
          <mxGeometry x="710" y="500" width="80" height="110" as="geometry" />
        </mxCell>
        <mxCell id="AYb-isKz4nac1UMFXbAt-10" value="P4&lt;div&gt;ADMINISTRACIJA SUSTAVA:&lt;/div&gt;&lt;div&gt;Upravljanje pravima pristupa, upravljanje ulogama&lt;/div&gt;" style="rounded=1;whiteSpace=wrap;html=1;" parent="1" vertex="1">
          <mxGeometry x="470" y="520" width="160" height="90" as="geometry" />
        </mxCell>
        <mxCell id="1DAzo3YN7i9run7a1Zh_-19" style="edgeStyle=orthogonalEdgeStyle;rounded=0;orthogonalLoop=1;jettySize=auto;html=1;entryX=0.5;entryY=0;entryDx=0;entryDy=0;" parent="1" source="AYb-isKz4nac1UMFXbAt-11" target="AYb-isKz4nac1UMFXbAt-10" edge="1">
          <mxGeometry relative="1" as="geometry">
            <Array as="points">
              <mxPoint x="550" y="470" />
              <mxPoint x="550" y="470" />
            </Array>
          </mxGeometry>
        </mxCell>
        <mxCell id="AYb-isKz4nac1UMFXbAt-11" value="&lt;div&gt;&amp;nbsp;P3&lt;/div&gt;&lt;div&gt;OBRADA ZAHTJEVA KUPACA:&lt;/div&gt;&lt;div&gt;Zaprimanje i obrada zahtjeva za kupnju vina&lt;/div&gt;" style="rounded=1;whiteSpace=wrap;html=1;" parent="1" vertex="1">
          <mxGeometry x="470" y="360" width="170" height="90" as="geometry" />
        </mxCell>
        <mxCell id="1DAzo3YN7i9run7a1Zh_-13" value="Pohrana i&amp;nbsp;&lt;div&gt;dohvat&amp;nbsp;&lt;div&gt;podataka&lt;/div&gt;&lt;/div&gt;" style="edgeStyle=orthogonalEdgeStyle;rounded=0;orthogonalLoop=1;jettySize=auto;html=1;" parent="1" source="AYb-isKz4nac1UMFXbAt-12" target="AYb-isKz4nac1UMFXbAt-7" edge="1">
          <mxGeometry relative="1" as="geometry">
            <Array as="points">
              <mxPoint x="770" y="250" />
            </Array>
          </mxGeometry>
        </mxCell>
        <mxCell id="1DAzo3YN7i9run7a1Zh_-18" style="edgeStyle=orthogonalEdgeStyle;rounded=0;orthogonalLoop=1;jettySize=auto;html=1;entryX=0.5;entryY=0;entryDx=0;entryDy=0;" parent="1" source="AYb-isKz4nac1UMFXbAt-12" target="AYb-isKz4nac1UMFXbAt-11" edge="1">
          <mxGeometry relative="1" as="geometry" />
        </mxCell>
        <mxCell id="AYb-isKz4nac1UMFXbAt-12" value="P2&lt;div&gt;&lt;br&gt;&lt;/div&gt;&lt;div&gt;EVIDENCIJA ZALIHA I ORGANIZACIJA DOGADJAJA:&lt;/div&gt;&lt;div&gt;Prikaz zaliha,&amp;nbsp;&lt;span style=&quot;background-color: transparent; color: light-dark(rgb(0, 0, 0), rgb(255, 255, 255));&quot;&gt;organizacija dogadjaja i&amp;nbsp;&lt;/span&gt;&lt;span style=&quot;background-color: transparent; color: light-dark(rgb(0, 0, 0), rgb(255, 255, 255));&quot;&gt;pracenje prijava kupaca na&amp;nbsp; dogadjaje&amp;nbsp;&lt;/span&gt;&lt;/div&gt;" style="rounded=1;whiteSpace=wrap;html=1;" parent="1" vertex="1">
          <mxGeometry x="470" y="200" width="170" height="110" as="geometry" />
        </mxCell>
        <mxCell id="AYb-isKz4nac1UMFXbAt-15" style="edgeStyle=orthogonalEdgeStyle;rounded=0;orthogonalLoop=1;jettySize=auto;html=1;exitX=0.5;exitY=1;exitDx=0;exitDy=0;" parent="1" source="AYb-isKz4nac1UMFXbAt-11" target="AYb-isKz4nac1UMFXbAt-11" edge="1">
          <mxGeometry relative="1" as="geometry" />
        </mxCell>
        <mxCell id="AYb-isKz4nac1UMFXbAt-16" value="DOBAVLJAÄŒI" style="rounded=0;whiteSpace=wrap;html=1;" parent="1" vertex="1">
          <mxGeometry x="40" y="290" width="120" height="60" as="geometry" />
        </mxCell>
        <mxCell id="AYb-isKz4nac1UMFXbAt-17" value="ADMINISTRATORI" style="rounded=0;whiteSpace=wrap;html=1;" parent="1" vertex="1">
          <mxGeometry x="40" y="540" width="120" height="60" as="geometry" />
        </mxCell>
        <mxCell id="X2EJvij0L6XoEy5MmabA-5" value="Zahtjevi za narudzbu" style="edgeStyle=orthogonalEdgeStyle;rounded=0;orthogonalLoop=1;jettySize=auto;html=1;" parent="1" source="AYb-isKz4nac1UMFXbAt-18" edge="1">
          <mxGeometry relative="1" as="geometry">
            <mxPoint x="470" y="440" as="targetPoint" />
            <Array as="points">
              <mxPoint x="470" y="440" />
            </Array>
          </mxGeometry>
        </mxCell>
        <mxCell id="ggQxTrMIQY6FQvAKZM13-5" value="Registracija" style="edgeStyle=orthogonalEdgeStyle;rounded=0;orthogonalLoop=1;jettySize=auto;html=1;exitX=1;exitY=0.25;exitDx=0;exitDy=0;entryX=0;entryY=1;entryDx=0;entryDy=0;" parent="1" source="AYb-isKz4nac1UMFXbAt-18" target="AYb-isKz4nac1UMFXbAt-21" edge="1">
          <mxGeometry x="-0.4876" relative="1" as="geometry">
            <Array as="points">
              <mxPoint x="160" y="410" />
              <mxPoint x="430" y="410" />
              <mxPoint x="430" y="130" />
            </Array>
            <mxPoint as="offset" />
          </mxGeometry>
        </mxCell>
        <mxCell id="AYb-isKz4nac1UMFXbAt-18" value="KUPCI" style="rounded=0;whiteSpace=wrap;html=1;" parent="1" vertex="1">
          <mxGeometry x="40" y="410" width="120" height="60" as="geometry" />
        </mxCell>
        <mxCell id="sZ5t43tfDt6ROwvAIZj8-11" value="Upravljanje i organizacija" style="edgeStyle=orthogonalEdgeStyle;rounded=0;orthogonalLoop=1;jettySize=auto;html=1;" parent="1" source="AYb-isKz4nac1UMFXbAt-19" edge="1">
          <mxGeometry x="0.3617" relative="1" as="geometry">
            <Array as="points">
              <mxPoint x="90" y="190" />
              <mxPoint x="460" y="190" />
              <mxPoint x="460" y="220" />
            </Array>
            <mxPoint x="470" y="220" as="targetPoint" />
            <mxPoint as="offset" />
          </mxGeometry>
        </mxCell>
        <mxCell id="AYb-isKz4nac1UMFXbAt-19" value="DJELATNICI" style="rounded=0;whiteSpace=wrap;html=1;" parent="1" vertex="1">
          <mxGeometry x="40" y="70" width="120" height="60" as="geometry" />
        </mxCell>
        <mxCell id="1DAzo3YN7i9run7a1Zh_-17" value="" style="edgeStyle=orthogonalEdgeStyle;rounded=0;orthogonalLoop=1;jettySize=auto;html=1;" parent="1" source="AYb-isKz4nac1UMFXbAt-21" target="AYb-isKz4nac1UMFXbAt-12" edge="1">
          <mxGeometry relative="1" as="geometry" />
        </mxCell>
        <mxCell id="AYb-isKz4nac1UMFXbAt-21" value="P1&lt;div&gt;&lt;span style=&quot;background-color: transparent; color: light-dark(rgb(0, 0, 0), rgb(255, 255, 255));&quot;&gt;UPRAVLJANJE KORISNICIMA:&lt;/span&gt;&lt;/div&gt;&lt;div&gt;Registracija, evidencija korisnika i uredjivanje podataka&lt;/div&gt;" style="rounded=1;whiteSpace=wrap;html=1;" parent="1" vertex="1">
          <mxGeometry x="470" y="40" width="170" height="90" as="geometry" />
        </mxCell>
        <mxCell id="1DAzo3YN7i9run7a1Zh_-14" value="Dohvacanje&amp;nbsp;&lt;div&gt;podataka&lt;/div&gt;&lt;div&gt;o zalihama&lt;/div&gt;&lt;div&gt;vina&lt;/div&gt;" style="edgeStyle=orthogonalEdgeStyle;rounded=0;orthogonalLoop=1;jettySize=auto;html=1;entryX=0.145;entryY=0;entryDx=0;entryDy=4.35;entryPerimeter=0;" parent="1" source="AYb-isKz4nac1UMFXbAt-11" target="AYb-isKz4nac1UMFXbAt-7" edge="1">
          <mxGeometry relative="1" as="geometry" />
        </mxCell>
        <mxCell id="1DAzo3YN7i9run7a1Zh_-15" style="edgeStyle=orthogonalEdgeStyle;rounded=0;orthogonalLoop=1;jettySize=auto;html=1;entryX=0;entryY=0.5;entryDx=0;entryDy=0;entryPerimeter=0;" parent="1" source="AYb-isKz4nac1UMFXbAt-10" target="AYb-isKz4nac1UMFXbAt-7" edge="1">
          <mxGeometry relative="1" as="geometry">
            <Array as="points">
              <mxPoint x="650" y="555" />
              <mxPoint x="650" y="555" />
            </Array>
          </mxGeometry>
        </mxCell>
        <mxCell id="ykCZ91Tiy0JVU6pRaTfl-7" value="Azurirani&lt;div&gt;pristupi&amp;nbsp;&lt;/div&gt;&lt;div&gt;i ovlasti&lt;/div&gt;" style="edgeLabel;html=1;align=center;verticalAlign=middle;resizable=0;points=[];" parent="1DAzo3YN7i9run7a1Zh_-15" vertex="1" connectable="0">
          <mxGeometry x="-0.13" y="2" relative="1" as="geometry">
            <mxPoint as="offset" />
          </mxGeometry>
        </mxCell>
        <mxCell id="X2EJvij0L6XoEy5MmabA-3" value="Pregled korisnika" style="edgeStyle=orthogonalEdgeStyle;rounded=0;orthogonalLoop=1;jettySize=auto;html=1;" parent="1" source="AYb-isKz4nac1UMFXbAt-19" edge="1">
          <mxGeometry relative="1" as="geometry">
            <Array as="points">
              <mxPoint x="230" y="100" />
              <mxPoint x="230" y="100" />
            </Array>
            <mxPoint x="470" y="100" as="targetPoint" />
          </mxGeometry>
        </mxCell>
        <mxCell id="sZ5t43tfDt6ROwvAIZj8-7" value="Novi zahtjevi kupaca za obradu" style="endArrow=classic;html=1;rounded=0;exitX=0;exitY=0.25;exitDx=0;exitDy=0;entryX=1;entryY=1;entryDx=0;entryDy=0;" parent="1" source="AYb-isKz4nac1UMFXbAt-11" target="AYb-isKz4nac1UMFXbAt-19" edge="1">
          <mxGeometry x="0.1666" y="-1" width="50" height="50" relative="1" as="geometry">
            <mxPoint x="390" y="430" as="sourcePoint" />
            <mxPoint x="440" y="380" as="targetPoint" />
            <mxPoint x="1" as="offset" />
          </mxGeometry>
        </mxCell>
        <mxCell id="sZ5t43tfDt6ROwvAIZj8-9" value="Upravljanje sustavom i pristupima" style="endArrow=classic;html=1;rounded=0;exitX=1;exitY=0.25;exitDx=0;exitDy=0;" parent="1" source="AYb-isKz4nac1UMFXbAt-17" edge="1">
          <mxGeometry width="50" height="50" relative="1" as="geometry">
            <mxPoint x="390" y="430" as="sourcePoint" />
            <mxPoint x="470" y="555" as="targetPoint" />
          </mxGeometry>
        </mxCell>
        <mxCell id="sZ5t43tfDt6ROwvAIZj8-10" value="Potvrde o uspjesnim promjenama u sustavu" style="endArrow=classic;html=1;rounded=0;exitX=0;exitY=0.75;exitDx=0;exitDy=0;entryX=1;entryY=0.75;entryDx=0;entryDy=0;" parent="1" source="AYb-isKz4nac1UMFXbAt-10" edge="1" target="AYb-isKz4nac1UMFXbAt-17">
          <mxGeometry width="50" height="50" relative="1" as="geometry">
            <mxPoint x="390" y="430" as="sourcePoint" />
            <mxPoint x="160" y="595" as="targetPoint" />
          </mxGeometry>
        </mxCell>
        <mxCell id="ykCZ91Tiy0JVU6pRaTfl-1" value="" style="endArrow=none;html=1;rounded=0;exitX=0;exitY=0.25;exitDx=0;exitDy=0;entryX=1;entryY=0.25;entryDx=0;entryDy=0;" parent="1" source="AYb-isKz4nac1UMFXbAt-21" target="AYb-isKz4nac1UMFXbAt-21" edge="1">
          <mxGeometry width="50" height="50" relative="1" as="geometry">
            <mxPoint x="390" y="300" as="sourcePoint" />
            <mxPoint x="440" y="250" as="targetPoint" />
            <Array as="points" />
          </mxGeometry>
        </mxCell>
        <mxCell id="ykCZ91Tiy0JVU6pRaTfl-3" value="" style="endArrow=none;html=1;rounded=0;exitX=0;exitY=0.25;exitDx=0;exitDy=0;entryX=1;entryY=0.25;entryDx=0;entryDy=0;" parent="1" source="AYb-isKz4nac1UMFXbAt-12" target="AYb-isKz4nac1UMFXbAt-12" edge="1">
          <mxGeometry width="50" height="50" relative="1" as="geometry">
            <mxPoint x="390" y="300" as="sourcePoint" />
            <mxPoint x="440" y="250" as="targetPoint" />
          </mxGeometry>
        </mxCell>
        <mxCell id="ykCZ91Tiy0JVU6pRaTfl-5" value="" style="endArrow=none;html=1;rounded=0;exitX=0;exitY=0.25;exitDx=0;exitDy=0;entryX=1;entryY=0.25;entryDx=0;entryDy=0;" parent="1" source="AYb-isKz4nac1UMFXbAt-11" target="AYb-isKz4nac1UMFXbAt-11" edge="1">
          <mxGeometry width="50" height="50" relative="1" as="geometry">
            <mxPoint x="390" y="410" as="sourcePoint" />
            <mxPoint x="440" y="360" as="targetPoint" />
          </mxGeometry>
        </mxCell>
        <mxCell id="ykCZ91Tiy0JVU6pRaTfl-6" value="" style="endArrow=none;html=1;rounded=0;exitX=0;exitY=0.25;exitDx=0;exitDy=0;entryX=1;entryY=0.25;entryDx=0;entryDy=0;" parent="1" source="AYb-isKz4nac1UMFXbAt-10" target="AYb-isKz4nac1UMFXbAt-10" edge="1">
          <mxGeometry width="50" height="50" relative="1" as="geometry">
            <mxPoint x="390" y="410" as="sourcePoint" />
            <mxPoint x="440" y="360" as="targetPoint" />
          </mxGeometry>
        </mxCell>
        <mxCell id="ykCZ91Tiy0JVU6pRaTfl-8" value="" style="endArrow=classic;html=1;rounded=0;exitX=1;exitY=0.75;exitDx=0;exitDy=0;entryX=0.005;entryY=0.913;entryDx=0;entryDy=0;entryPerimeter=0;" parent="1" source="AYb-isKz4nac1UMFXbAt-16" target="AYb-isKz4nac1UMFXbAt-12" edge="1">
          <mxGeometry width="50" height="50" relative="1" as="geometry">
            <mxPoint x="390" y="380" as="sourcePoint" />
            <mxPoint x="440" y="330" as="targetPoint" />
          </mxGeometry>
        </mxCell>
        <mxCell id="ykCZ91Tiy0JVU6pRaTfl-12" value="Isporuka vina" style="edgeLabel;html=1;align=center;verticalAlign=middle;resizable=0;points=[];" parent="ykCZ91Tiy0JVU6pRaTfl-8" vertex="1" connectable="0">
          <mxGeometry x="-0.6211" y="1" relative="1" as="geometry">
            <mxPoint x="31" y="3" as="offset" />
          </mxGeometry>
        </mxCell>
        <mxCell id="ykCZ91Tiy0JVU6pRaTfl-9" value="" style="endArrow=classic;html=1;rounded=0;exitX=-0.009;exitY=0.665;exitDx=0;exitDy=0;entryX=1.01;entryY=0.373;entryDx=0;entryDy=0;entryPerimeter=0;exitPerimeter=0;" parent="1" source="AYb-isKz4nac1UMFXbAt-12" target="AYb-isKz4nac1UMFXbAt-16" edge="1">
          <mxGeometry width="50" height="50" relative="1" as="geometry">
            <mxPoint x="390" y="380" as="sourcePoint" />
            <mxPoint x="440" y="330" as="targetPoint" />
          </mxGeometry>
        </mxCell>
        <mxCell id="ykCZ91Tiy0JVU6pRaTfl-11" value="Zahtjevi za isporuku" style="edgeLabel;html=1;align=center;verticalAlign=middle;resizable=0;points=[];" parent="ykCZ91Tiy0JVU6pRaTfl-9" vertex="1" connectable="0">
          <mxGeometry x="0.4766" y="1" relative="1" as="geometry">
            <mxPoint x="29" y="-3" as="offset" />
          </mxGeometry>
        </mxCell>
        <mxCell id="ggQxTrMIQY6FQvAKZM13-1" style="edgeStyle=orthogonalEdgeStyle;rounded=0;orthogonalLoop=1;jettySize=auto;html=1;exitX=1;exitY=0.5;exitDx=0;exitDy=0;entryX=1;entryY=0;entryDx=0;entryDy=15;entryPerimeter=0;" parent="1" source="AYb-isKz4nac1UMFXbAt-21" target="AYb-isKz4nac1UMFXbAt-7" edge="1">
          <mxGeometry relative="1" as="geometry" />
        </mxCell>
        <mxCell id="ggQxTrMIQY6FQvAKZM13-2" value="Pohrana&amp;nbsp;&lt;div&gt;i&amp;nbsp;&lt;span style=&quot;background-color: light-dark(#ffffff, var(--ge-dark-color, #121212)); color: light-dark(rgb(0, 0, 0), rgb(255, 255, 255));&quot;&gt;dohvat&amp;nbsp;&lt;/span&gt;&lt;div&gt;podataka&lt;/div&gt;&lt;/div&gt;" style="edgeLabel;html=1;align=center;verticalAlign=middle;resizable=0;points=[];" parent="ggQxTrMIQY6FQvAKZM13-1" vertex="1" connectable="0">
          <mxGeometry x="-0.5013" y="1" relative="1" as="geometry">
            <mxPoint as="offset" />
          </mxGeometry>
        </mxCell>
      </root>
    </mxGraphModel>
  </diagram>
</mxfile>
